<svg width="100" height="23" viewBox="0 0 100 23" fill="none" xmlns="http://www.w3.org/2000/svg">
<path d="M35.4062 9.89258C35.0977 10.2949 34.6699 10.5996 34.123 10.8066C33.5762 11.0137 32.9551 11.1172 32.2598 11.1172C31.5449 11.1172 30.9121 10.9551 30.3613 10.6309C29.8105 10.3066 29.3848 9.84375 29.084 9.24219C28.7871 8.63672 28.6328 7.93164 28.6211 7.12695V6.45898C28.6211 5.16992 28.9297 4.16406 29.5469 3.44141C30.1641 2.71484 31.0254 2.35156 32.1309 2.35156C33.0801 2.35156 33.834 2.58594 34.3926 3.05469C34.9512 3.52344 35.2871 4.19922 35.4004 5.08203H33.9473C33.7832 4.05469 33.1875 3.54102 32.1602 3.54102C31.4961 3.54102 30.9902 3.78125 30.6426 4.26172C30.2988 4.73828 30.1211 5.43945 30.1094 6.36523V7.02148C30.1094 7.94336 30.3027 8.66016 30.6895 9.17188C31.0801 9.67969 31.6211 9.93359 32.3125 9.93359C33.0703 9.93359 33.6094 9.76172 33.9297 9.41797V7.74805H32.1719V6.62305H35.4062V9.89258ZM43.4905 9.01367H40.1859L39.4945 11H37.9534L41.1761 2.46875H42.5062L45.7347 11H44.1878L43.4905 9.01367ZM40.6019 7.81836H43.0745L41.8382 4.2793L40.6019 7.81836ZM53.8483 3.66406H51.1881V11H49.7174V3.66406H47.0807V2.46875H53.8483V3.66406ZM61.6396 7.19141H58.1357V9.81641H62.2314V11H56.6533V2.46875H62.1904V3.66406H58.1357V6.01953H61.6396V7.19141ZM70.5677 3.25977L67.1575 11H65.6634L69.0677 3.61133H64.6555V2.46875H70.5677V3.25977ZM77.4273 7.43164C76.9508 7.93555 76.3941 8.1875 75.7574 8.1875C75.0074 8.1875 74.4098 7.92578 73.9645 7.40234C73.5191 6.875 73.2965 6.18359 73.2965 5.32812C73.2965 4.76562 73.4098 4.25586 73.6363 3.79883C73.8629 3.3418 74.1852 2.98633 74.6031 2.73242C75.0211 2.47852 75.5055 2.35156 76.0563 2.35156C76.9156 2.35156 77.5973 2.67188 78.1012 3.3125C78.6051 3.95312 78.857 4.81055 78.857 5.88477V6.2832C78.857 7.82227 78.5094 8.99609 77.8141 9.80469C77.1188 10.6133 76.0816 11.0234 74.7027 11.0352H74.5328V9.85742H74.7379C75.5777 9.8457 76.2223 9.64453 76.6715 9.25391C77.1207 8.85938 77.3727 8.25195 77.4273 7.43164ZM76.0563 7.07422C76.3414 7.07422 76.609 6.99219 76.859 6.82812C77.109 6.66406 77.3023 6.4375 77.4391 6.14844V5.5918C77.4391 4.96289 77.3102 4.45703 77.0523 4.07422C76.7945 3.69141 76.4605 3.5 76.0504 3.5C75.6402 3.5 75.3121 3.66992 75.066 4.00977C74.8238 4.3457 74.7027 4.77148 74.7027 5.28711C74.7027 5.82227 74.8258 6.25391 75.0719 6.58203C75.318 6.91016 75.6461 7.07422 76.0563 7.07422Z" fill="black"/>
<path d="M32.6875 16.1094H30.9141V21H29.9336V16.1094H28.1758V15.3125H32.6875V16.1094ZM36.3273 18.8086H35.2258V21H34.2375V15.3125H36.2375C36.8938 15.3125 37.4003 15.4596 37.757 15.7539C38.1138 16.0482 38.2922 16.474 38.2922 17.0312C38.2922 17.4115 38.1997 17.7305 38.0148 17.9883C37.8326 18.2435 37.5773 18.4401 37.2492 18.5781L38.5266 20.9492V21H37.468L36.3273 18.8086ZM35.2258 18.0156H36.2414C36.5747 18.0156 36.8352 17.9323 37.0227 17.7656C37.2102 17.5964 37.3039 17.3659 37.3039 17.0742C37.3039 16.7695 37.2167 16.5339 37.0422 16.3672C36.8703 16.2005 36.6125 16.1146 36.2688 16.1094H35.2258V18.0156ZM43.2133 19.6758H41.0102L40.5492 21H39.5219L41.6703 15.3125H42.557L44.7094 21H43.6781L43.2133 19.6758ZM41.2875 18.8789H42.9359L42.1117 16.5195L41.2875 18.8789ZM47.857 19.7617L49.3023 15.3125H50.3883L48.3414 21H47.3844L45.3453 15.3125H46.4273L47.857 19.7617ZM55.157 18.4609H52.8211V20.2109H55.5516V21H51.8328V15.3125H55.5242V16.1094H52.8211V17.6797H55.157V18.4609ZM58.1445 20.2109H60.7266V21H57.1562V15.3125H58.1445V20.2109ZM68.2602 19.6758H66.057L65.5961 21H64.5687L66.7172 15.3125H67.6039L69.7562 21H68.725L68.2602 19.6758ZM66.3344 18.8789H67.9828L67.1586 16.5195L66.3344 18.8789ZM75.4781 20.2617C75.2724 20.5299 74.9872 20.7331 74.6227 20.8711C74.2581 21.0091 73.844 21.0781 73.3805 21.0781C72.9039 21.0781 72.482 20.9701 72.1148 20.7539C71.7477 20.5378 71.4638 20.2292 71.2633 19.8281C71.0654 19.4245 70.9625 18.9544 70.9547 18.418V17.9727C70.9547 17.1133 71.1604 16.4427 71.5719 15.9609C71.9833 15.4766 72.5576 15.2344 73.2945 15.2344C73.9273 15.2344 74.4299 15.3906 74.8023 15.7031C75.1747 16.0156 75.3987 16.4661 75.4742 17.0547H74.5055C74.3961 16.3698 73.999 16.0273 73.3141 16.0273C72.8714 16.0273 72.5341 16.1875 72.3023 16.5078C72.0732 16.8255 71.9547 17.293 71.9469 17.9102V18.3477C71.9469 18.9622 72.0758 19.4401 72.3336 19.7812C72.594 20.1198 72.9547 20.2891 73.4156 20.2891C73.9208 20.2891 74.2802 20.1745 74.4938 19.9453V18.832H73.3219V18.082H75.4781V20.2617ZM80.6883 18.4609H78.3523V20.2109H81.0828V21H77.3641V15.3125H81.0555V16.1094H78.3523V17.6797H80.6883V18.4609ZM87.1992 21H86.2109L83.6758 16.9648V21H82.6875V15.3125H83.6758L86.2188 19.3633V15.3125H87.1992V21ZM93.507 19.1484C93.4497 19.7552 93.2258 20.2292 92.8352 20.5703C92.4445 20.9089 91.925 21.0781 91.2766 21.0781C90.8234 21.0781 90.4237 20.9714 90.0773 20.7578C89.7336 20.5417 89.468 20.2357 89.2805 19.8398C89.093 19.444 88.9953 18.9844 88.9875 18.4609V17.9297C88.9875 17.3932 89.0826 16.9206 89.2727 16.5117C89.4628 16.1029 89.7349 15.7878 90.0891 15.5664C90.4458 15.3451 90.8573 15.2344 91.3234 15.2344C91.951 15.2344 92.4562 15.4049 92.8391 15.7461C93.2219 16.0872 93.4445 16.569 93.507 17.1914H92.5227C92.4758 16.7826 92.356 16.4883 92.1633 16.3086C91.9732 16.1263 91.6932 16.0352 91.3234 16.0352C90.8937 16.0352 90.563 16.1927 90.3312 16.5078C90.1021 16.8203 89.9849 17.2799 89.9797 17.8867V18.3906C89.9797 19.0052 90.0891 19.474 90.3078 19.7969C90.5292 20.1198 90.8521 20.2812 91.2766 20.2812C91.6646 20.2812 91.9562 20.194 92.1516 20.0195C92.3469 19.8451 92.4706 19.5547 92.5227 19.1484H93.507ZM97.0492 18.0078L98.3578 15.3125H99.4516L97.5453 18.9062V21H96.5531V18.9062L94.643 15.3125H95.7406L97.0492 18.0078Z" fill="black" fill-opacity="0.7"/>
<path d="M21.4512 7.78405L8.41743 19.9572C8.4106 19.9636 8.40205 19.97 8.39351 19.9732C8.30805 20.0498 8.20892 20.1073 8.10467 20.1472C7.98844 20.1919 7.8671 20.2142 7.74404 20.2142C7.62098 20.2142 7.49964 20.1919 7.38342 20.1472C7.27574 20.1057 7.17319 20.0434 7.08432 19.962L5.36665 18.3593C5.30854 18.3051 5.27607 18.2348 5.26752 18.1598C5.26068 18.0896 5.27777 18.0161 5.31879 17.9523L5.32392 17.9443C5.42476 17.8022 5.49483 17.6474 5.53585 17.4862C5.57858 17.3234 5.59054 17.1542 5.57345 16.9865V16.9849C5.55465 16.8205 5.5068 16.6577 5.42989 16.5045C5.35639 16.3592 5.25385 16.2203 5.12395 16.099C4.99406 15.9777 4.84708 15.8819 4.68984 15.8133C4.52576 15.7399 4.35143 15.6952 4.17539 15.6792C4.00277 15.6632 3.82331 15.6744 3.65069 15.7127C3.48149 15.751 3.31912 15.8149 3.17043 15.9043C3.10035 15.9538 3.01831 15.9745 2.93628 15.9681C2.85424 15.9633 2.7722 15.9298 2.71067 15.8723L0.999839 14.2729C0.909256 14.1883 0.8426 14.0909 0.796454 13.9888C0.748598 13.8818 0.72467 13.7669 0.72467 13.6519C0.72467 13.537 0.748598 13.4221 0.796454 13.3151C0.840891 13.213 0.907547 13.1188 0.994712 13.0358L14.0336 0.856243C14.1242 0.77164 14.2285 0.709386 14.3378 0.666286C14.4541 0.621591 14.5771 0.599243 14.7002 0.599243C14.8232 0.599243 14.9463 0.621591 15.0608 0.666286C15.1719 0.709386 15.2761 0.77164 15.365 0.856243L17.0895 2.46688C17.1442 2.51796 17.1784 2.5866 17.1869 2.65843C17.1955 2.72707 17.1818 2.8005 17.1425 2.86435L17.1391 2.86914C17.0468 3.00801 16.9819 3.15806 16.9443 3.3145C16.9067 3.47412 16.8981 3.64014 16.9186 3.80136V3.80296C16.9391 3.96258 16.9887 4.11902 17.0673 4.26747C17.1408 4.40794 17.2416 4.54203 17.3698 4.66175V4.66335C17.4946 4.78307 17.6364 4.87565 17.7868 4.94588C17.9441 5.01772 18.115 5.06401 18.2876 5.08316C18.4568 5.10232 18.6294 5.09593 18.7987 5.06241C18.9644 5.03049 19.1268 4.97302 19.2755 4.89002C19.3456 4.84851 19.4276 4.82936 19.5096 4.83574C19.5883 4.84213 19.6652 4.87246 19.725 4.92992L21.4495 6.54056C21.5401 6.62516 21.6067 6.72253 21.6529 6.82469C21.7007 6.93324 21.7247 7.04817 21.7247 7.16151C21.7247 7.27644 21.7007 7.39137 21.6529 7.49832C21.6084 7.59888 21.5418 7.69466 21.4546 7.77767L21.4512 7.78405ZM4.08139 11.0867L10.5043 17.0855L18.3731 9.73629L11.9502 3.73751L4.08139 11.0867ZM10.0138 17.542L3.59087 11.5449L1.50061 13.4971C1.47839 13.5179 1.4613 13.5418 1.45105 13.5689C1.43908 13.5977 1.43225 13.628 1.43225 13.6567C1.43225 13.6887 1.43737 13.7174 1.44934 13.7445C1.4613 13.7701 1.47839 13.7956 1.50061 13.8164L3.02515 15.2402C3.20632 15.1572 3.39774 15.0982 3.59087 15.063C3.80793 15.0247 4.02841 15.0152 4.24717 15.0359C4.50354 15.0583 4.75478 15.1205 4.98893 15.2243C5.21967 15.3264 5.43331 15.4653 5.62302 15.6425C5.80931 15.8165 5.9563 16.016 6.06397 16.2283C6.17677 16.4502 6.24514 16.688 6.27248 16.9275C6.2947 17.1318 6.28616 17.3393 6.24343 17.5405C6.20583 17.7224 6.14259 17.8996 6.05372 18.0688L7.57826 19.4927C7.60047 19.5134 7.62611 19.5294 7.65517 19.539C7.68593 19.5502 7.7184 19.5565 7.74917 19.5565C7.78164 19.5565 7.81411 19.5502 7.84317 19.539C7.87052 19.5278 7.89786 19.5118 7.92008 19.4911L10.0138 17.542ZM12.4407 3.27938L18.8636 9.27816L20.9573 7.32273C20.9658 7.31475 20.9744 7.30996 20.9846 7.30677C20.9966 7.2908 21.0068 7.27484 21.0137 7.25728C21.0256 7.22855 21.0325 7.19822 21.0325 7.16949C21.0325 7.13916 21.0273 7.11043 21.0154 7.08489L21.0137 7.08169C21.0034 7.05615 20.9863 7.03381 20.9658 7.01305L19.4225 5.57162C19.2413 5.64665 19.0533 5.69932 18.8602 5.72965C18.6482 5.76158 18.4329 5.76637 18.2175 5.74242C17.9663 5.71529 17.7236 5.64984 17.4946 5.54608C17.2724 5.44552 17.0656 5.30983 16.881 5.13744C16.6964 4.96504 16.5512 4.77189 16.4435 4.56438C16.3324 4.34888 16.2606 4.12061 16.2315 3.88756C16.2059 3.68802 16.211 3.48689 16.2452 3.28896C16.2777 3.10858 16.3341 2.93299 16.4144 2.76378L14.8745 1.32555C14.854 1.30639 14.8284 1.29043 14.801 1.27925L14.7976 1.27766C14.7668 1.26648 14.7344 1.2601 14.7036 1.2601C14.6694 1.2601 14.6386 1.26489 14.6096 1.27606C14.5822 1.28724 14.5549 1.3032 14.5327 1.32395L12.4407 3.27938Z" fill="black"/>
<path d="M10.0753 13.1172C10.2736 12.9321 10.3659 12.7421 10.3983 12.541C10.4274 12.3558 10.4086 12.1643 10.3795 11.9536L11.2273 11.1618L12.157 13.4205C12.1741 13.4604 12.2237 13.4812 12.2664 13.4652C12.2767 13.4604 12.2869 13.4557 12.2955 13.4477C12.4852 13.2721 12.6339 13.1667 12.7467 13.0869L12.747 13.0867C13.0663 12.8618 13.1278 12.8185 12.9808 12.2074L13.3705 11.8434C13.403 11.8131 13.403 11.762 13.3705 11.7317L12.9774 11.3645C12.9449 11.3342 12.8902 11.3342 12.8578 11.3645L12.7877 11.43L12.7244 11.1746L13.1654 10.7627C13.1979 10.7324 13.1979 10.6813 13.1654 10.651L12.7723 10.2839C12.7398 10.2535 12.6851 10.2535 12.6527 10.2839L12.5313 10.3972L12.439 10.0285L13.4064 9.12497C13.4953 9.04037 13.5294 8.92065 13.5106 8.79614C13.4936 8.67802 13.4286 8.55511 13.3226 8.45614L13.3209 8.45454C13.215 8.35717 13.0851 8.29651 12.9603 8.28055C12.827 8.26299 12.6988 8.29332 12.6082 8.37792L11.6409 9.28141L11.2409 9.19521L11.364 9.08028C11.3965 9.04995 11.3965 8.99887 11.364 8.96854L10.9709 8.6014C10.9384 8.57107 10.8837 8.57107 10.8513 8.6014L10.4086 9.01483L10.1351 8.95577L10.2069 8.88873C10.2394 8.8584 10.2394 8.80732 10.2069 8.77699L9.81381 8.40984C9.78134 8.37952 9.72665 8.37952 9.69417 8.40984L9.30278 8.77539C8.65052 8.63505 8.61408 8.67794 8.35156 8.98681L8.3508 8.98769C8.26364 9.08986 8.14742 9.22554 7.96112 9.39953C7.92865 9.42986 7.92865 9.48094 7.96112 9.51127C7.97138 9.52085 7.98334 9.52723 7.99701 9.53043L10.4291 10.4132L9.58821 11.1985C9.36089 11.157 9.16435 11.1315 8.96951 11.1586C8.75757 11.189 8.5559 11.2815 8.33371 11.4891C8.30124 11.5194 8.30124 11.5705 8.33371 11.6008L8.77808 12.0222C8.79176 12.0366 8.80885 12.0446 8.82765 12.0461C8.91994 12.0557 9.00882 12.0653 9.08573 12.0717L9.19682 12.0829C9.20707 12.1004 9.21904 12.1164 9.231 12.1323L9.23442 12.1371C9.25493 12.1643 9.27715 12.1882 9.30278 12.2122L9.30791 12.2169C9.33697 12.2425 9.36773 12.2664 9.3985 12.2872C9.419 12.3 9.43951 12.3127 9.46173 12.3239L9.4737 12.4117C9.48566 12.4899 9.49933 12.5857 9.51813 12.6974C9.52155 12.7134 9.5301 12.7294 9.54206 12.7405L9.95396 13.1188C9.97105 13.1332 9.99156 13.1412 10.0138 13.1412C10.0377 13.1412 10.0599 13.1316 10.0753 13.1172Z" fill="black"/>
</svg>
