<svg width="175" height="27" viewBox="0 0 175 27" fill="none" xmlns="http://www.w3.org/2000/svg">
<path d="M155.887 19.0633L158.928 24.0721C159.871 25.5732 161.424 26.2545 163.359 26.2545H171.183L162.024 15.2531L160.724 14.5197L157.295 15.6288L155.557 18.121L155.887 19.0633Z" fill="url(#paint0_linear_36_424)"/>
<path d="M162.024 15.2532L160.111 12.9558L155.058 15.6501L155.594 18.3696L155.887 19.0634C155.772 17.2203 158.965 15.0803 162.024 15.2532V15.2532Z" fill="url(#paint1_linear_36_424)"/>
<path d="M155.887 19.0633L153.153 14.5823C152.823 14.074 152.733 13.6292 152.733 13.111C152.733 12.541 152.978 12.2285 153.92 11.7336C155.017 11.2131 157.225 10.9867 159.501 10.9867C163.2 10.9867 164.087 12.1633 164.465 13.433C164.465 13.433 163.942 13.2272 162.714 13.2272C158.817 13.2272 155.702 15.1021 155.702 17.9408C155.702 18.5366 155.887 19.0633 155.887 19.0633V19.0633Z" fill="url(#paint2_linear_36_424)"/>
<path d="M144.142 3.05176e-05H147.82C149.372 3.05176e-05 150.008 0.628935 150.635 1.24596C151.353 1.89304 153.532 4.81491 158.136 10.5177H153.153C151.115 10.5177 150.47 10.1736 149.682 8.98228L144.142 3.05176e-05Z" fill="url(#paint3_linear_36_424)"/>
<path d="M173.473 25.0684L173.74 26.0163H173.744L174.015 25.0684H174.241L174.417 26.2552H174.235L174.111 25.2869H174.107L173.828 26.2552H173.634L173.362 25.2908H173.359L173.235 26.2552H173.062L173.237 25.0684H173.473ZM172.91 25.0684V25.2209H172.557V26.2552H172.382V25.2209H172.03V25.0684H172.91V25.0684Z" fill="#334357"/>
<path d="M86.5981 10.5252H86.5569L84.4638 16.3895H88.6962L86.5981 10.5252ZM90.3444 21.0096L89.3194 18.129H83.8395L82.8125 21.0096H80.4734L85.382 8.18739H87.9886L92.8217 21.0096H90.3444V21.0096ZM110.199 7.6736H112.487V9.81712H110.199V7.6736ZM110.225 11.2429H112.461V21.0096H110.225V11.2429V11.2429ZM93.7125 7.67263H96.0017V9.81712H93.7125V7.67263ZM93.739 11.2429H95.9752V21.0096H93.739V11.2429V11.2429ZM107.784 7.68526H105.547V21.0096H107.784V7.68526V7.68526ZM100.655 16.2467V21.0096H98.4123V13.7526C98.4123 13.0552 98.332 11.7275 98.3046 11.2448H100.111C100.306 11.2448 100.361 11.3264 100.367 11.5168C100.371 11.8052 100.387 12.7269 100.387 12.7269H100.438C100.614 12.3045 101.25 11.0399 103.108 11.0399C103.731 11.0399 104.191 11.239 104.267 11.2691C104.267 11.6897 104.222 12.6123 104.2 12.8561C104.186 13.0164 104.116 13.0688 104.035 13.0688C103.959 13.0688 103.924 13.0513 103.881 13.0348C103.742 12.9766 103.417 12.8785 102.965 12.8785C101.772 12.8785 100.655 13.7322 100.655 16.2467V16.2467ZM121.023 21.0096V14.7024C121.023 13.4981 120.468 12.7639 119.427 12.7639C118.051 12.7639 117.138 14.2149 117.138 16.1729V21.0096H114.901V13.8351C114.901 13.0455 114.828 11.8946 114.791 11.2448H116.588C116.791 11.2448 116.849 11.3274 116.851 11.508C116.857 11.7169 116.875 12.7269 116.875 12.7269H116.926C117.195 12.2675 117.884 11.0389 119.946 11.0389C122.071 11.0389 123.259 12.4793 123.259 14.0964V21.0096H121.023V21.0096ZM127.212 15.123H131.351C131.437 13.5486 130.603 12.6667 129.344 12.6667C128.027 12.6667 127.272 13.6108 127.212 15.123V15.123ZM132.73 18.8652C132.855 18.8652 132.891 18.973 132.901 19.0837C132.939 19.5003 132.975 20.4424 132.969 20.6823C132.73 20.7581 131.528 21.1961 129.913 21.1961C126.776 21.1961 124.889 19.5878 124.889 16.1253C124.889 13.1523 126.498 11.0399 129.39 11.0399C132.23 11.0399 133.581 12.9222 133.581 15.259C133.581 15.5338 133.55 15.9981 133.501 16.6148H127.184C127.184 18.2824 128.256 19.479 130.237 19.479C131.329 19.479 132.197 19.0915 132.542 18.9263C132.611 18.8933 132.651 18.8652 132.73 18.8652V18.8652ZM137.969 21.1961C140.88 21.1961 142.274 20.0161 142.274 18.262C142.274 16.5352 141.036 15.8087 139.725 15.3794C139.349 15.259 138.98 15.1366 138.636 15.022C137.739 14.7277 137.273 14.3411 137.273 13.7642C137.273 13.1553 137.834 12.7289 138.998 12.7289C140.033 12.7289 140.878 13.1475 141.214 13.3077C141.269 13.333 141.319 13.3689 141.409 13.3689C141.479 13.3689 141.566 13.3252 141.578 13.1523C141.601 12.825 141.64 12.2316 141.64 11.6615C141.368 11.5382 140.389 11.0399 138.815 11.0399C136.409 11.0399 134.93 12.2802 134.93 13.9167C134.93 15.5037 136.025 16.2282 137.229 16.6235C137.506 16.7168 138.021 16.8838 138.322 16.9848C139.579 17.3986 139.938 17.7745 139.938 18.3572C139.938 19.1177 139.12 19.4935 137.714 19.4935C136.561 19.4935 135.768 19.074 135.45 18.9263C135.385 18.8982 135.347 18.8652 135.257 18.8652C135.092 18.8652 135.089 19.0837 135.087 19.1196C135.08 19.2245 135.027 20.2365 135.027 20.5736C135.291 20.6862 136.433 21.1961 137.969 21.1961V21.1961ZM6.12469 10.5252H6.08354L3.98939 16.3895H8.21885L6.12469 10.5252ZM9.87006 21.0096L8.84405 18.129H3.36419L2.33817 21.0096H1.52588e-05L4.90858 8.18642H7.51328L12.3464 21.0096H9.87006V21.0096ZM46.4212 7.67263H48.7084V9.81615H46.4212V7.67263ZM46.4476 11.2429H48.6819V21.0096H46.4476V11.2429ZM41.6459 16.2467V21.0096H39.4067V13.7526C39.4067 13.0543 39.3263 11.7266 39.2969 11.2429H41.104C41.299 11.2429 41.3568 11.3264 41.3578 11.5158C41.3637 11.8033 41.3813 12.7269 41.3813 12.7269H41.4313C41.6086 12.3045 42.2427 11.0399 44.1016 11.0399C44.7219 11.0399 45.1864 11.238 45.2629 11.2681C45.2629 11.6887 45.2168 12.6114 45.1953 12.8561C45.1806 13.0154 45.109 13.0669 45.0296 13.0669C44.9542 13.0669 44.916 13.0513 44.8748 13.0348C44.7337 12.9756 44.4093 12.8775 43.9615 12.8775C42.7669 12.8775 41.6459 13.7322 41.6459 16.2467V16.2467ZM25.1269 21.0096V14.7607C25.1269 13.635 24.6467 12.7619 23.4874 12.7619C22.1821 12.7619 21.4295 14.178 21.4295 16.1612V21.0096H19.1943V14.7413C19.1943 13.7176 18.7631 12.7619 17.5636 12.7619C16.2397 12.7619 15.4989 14.1751 15.4989 16.2312V21.0096H13.2587V13.8963C13.2587 12.9775 13.1764 11.678 13.15 11.2429H14.9403C15.1422 11.2429 15.2088 11.3089 15.2127 11.5158C15.2176 11.7751 15.2333 12.7269 15.2333 12.7269H15.2843C15.4205 12.4482 16.1564 11.0389 18.2104 11.0389C20.1242 11.0389 20.8563 12.3996 21.0376 12.8192C21.2139 12.4501 22.0636 11.0389 23.9911 11.0389C25.9961 11.0389 27.3641 12.1054 27.3641 14.2479V21.0096H25.1269V21.0096ZM31.3143 15.121H35.4546C35.5398 13.5496 34.7088 12.6658 33.4476 12.6658C32.1306 12.6658 31.377 13.6108 31.3143 15.121ZM36.8353 18.8652C36.9578 18.8652 36.995 18.973 37.0048 19.0837C37.0431 19.5003 37.0793 20.4434 37.0734 20.6823C36.8353 20.7581 35.6329 21.1961 34.018 21.1961C30.8802 21.1961 28.9928 19.5858 28.9928 16.1234C28.9928 13.1543 30.6009 11.0399 33.4966 11.0399C36.3336 11.0399 37.6869 12.9212 37.6869 15.259C37.6869 15.5338 37.6555 15.9981 37.6056 16.6129H31.2878C31.2878 18.2824 32.3609 19.479 34.3394 19.479C35.432 19.479 36.3022 19.0915 36.6462 18.9244C36.7148 18.8914 36.754 18.8652 36.8353 18.8652V18.8652ZM64.8932 16.0544H64.513C61.7025 16.0544 61.1498 17.0227 61.1498 18.0066C61.1498 18.8108 61.6849 19.5722 62.7354 19.5722C64.1308 19.5722 64.8932 18.2368 64.8932 16.8314V16.0544V16.0544ZM65.4322 21.0096C65.2519 21.0096 65.1019 20.9504 65.0823 20.6911C65.0608 20.3725 65.0167 19.7558 65.0167 19.7558H64.9863C64.854 19.9355 64.0387 21.1961 61.9916 21.1961C60.0307 21.1961 58.9057 19.6985 58.9057 18.0542C58.9057 15.7747 61.139 14.6296 64.4522 14.6296H64.8932V14.2712C64.8932 13.2485 64.1592 12.7007 62.7873 12.7007C61.5526 12.7007 60.5275 13.13 60.1287 13.3311C60.1022 13.3437 60.0297 13.3854 59.9631 13.3854C59.8572 13.3854 59.7975 13.3204 59.7916 13.2048C59.7739 12.8377 59.7357 12.1316 59.7299 11.6838C60.1336 11.5314 61.4722 11.0389 62.9451 11.0389C65.8731 11.0389 67.1304 12.386 67.1304 14.5373V18.3455C67.1304 19.7344 67.2608 20.6435 67.3068 21.0096H65.4322V21.0096ZM57.7014 18.8652C57.7602 18.8652 57.8435 18.904 57.8631 19.0749C57.9062 19.5402 57.9238 20.3016 57.9258 20.5405C57.4789 20.7591 56.5107 21.1961 55.323 21.1961C52.3381 21.1961 50.5076 19.479 50.5076 16.1195C50.5076 12.9717 52.1352 11.0399 55.323 11.0399C56.3804 11.0399 57.3535 11.4051 57.9258 11.6965C57.9258 12.0442 57.8915 12.8318 57.8631 13.163C57.8493 13.3019 57.7817 13.3689 57.7014 13.3689C57.6122 13.3689 57.5818 13.3456 57.5289 13.3223C56.8086 12.9727 56.1315 12.8037 55.522 12.8037C53.6218 12.8037 52.8398 14.0362 52.8398 16.1195C52.8398 17.9765 53.465 19.4324 55.522 19.4324C56.3079 19.4324 57.0242 19.1546 57.4681 18.9429C57.5877 18.8875 57.6083 18.8652 57.7014 18.8652V18.8652ZM75.1885 21.0096V14.7024C75.1885 13.4971 74.6339 12.7629 73.5951 12.7629C72.2183 12.7629 71.303 14.2129 71.303 16.1729V21.0096H69.0678V13.8351C69.0678 13.0455 68.9953 11.8946 68.96 11.2429H70.7543C70.9591 11.2429 71.0179 11.3274 71.0189 11.508C71.0238 11.7149 71.0404 12.7269 71.0404 12.7269H71.0894C71.3618 12.2666 72.0498 11.038 74.1116 11.038C76.24 11.038 77.4277 12.4793 77.4277 14.0944V21.0096H75.1885V21.0096Z" fill="#334357"/>
<defs>
<linearGradient id="paint0_linear_36_424" x1="8366.31" y1="6701.21" x2="8366.31" y2="9249.7" gradientUnits="userSpaceOnUse">
<stop stop-color="#EB2023"/>
<stop offset="0.096269" stop-color="#E92026"/>
<stop offset="0.203864" stop-color="#E31E27"/>
<stop offset="0.298638" stop-color="#E01E26"/>
<stop offset="0.404297" stop-color="#D81F27"/>
<stop offset="0.5" stop-color="#CF2027"/>
<stop offset="0.6" stop-color="#C62127"/>
<stop offset="0.7" stop-color="#B92025"/>
<stop offset="0.8" stop-color="#AE1F23"/>
<stop offset="0.9" stop-color="#A01D22"/>
<stop offset="1" stop-color="#901C1C"/>
</linearGradient>
<linearGradient id="paint1_linear_36_424" x1="3857.34" y1="3943.82" x2="4630.29" y2="3379.24" gradientUnits="userSpaceOnUse">
<stop stop-color="#6C221F"/>
<stop offset="0.249132" stop-color="#7F2620"/>
<stop offset="0.498264" stop-color="#982B24"/>
<stop offset="0.749132" stop-color="#B53125"/>
<stop offset="1" stop-color="#CB3327"/>
</linearGradient>
<linearGradient id="paint2_linear_36_424" x1="6276.68" y1="5041.06" x2="7898.99" y2="3677.65" gradientUnits="userSpaceOnUse">
<stop stop-color="#E7EBEE"/>
<stop offset="0.249132" stop-color="#DFE4E8"/>
<stop offset="0.498264" stop-color="#CAD1D7"/>
<stop offset="0.749132" stop-color="#A8B5BD"/>
<stop offset="1" stop-color="#93A6AD"/>
</linearGradient>
<linearGradient id="paint3_linear_36_424" x1="6046" y1="2770.7" x2="6046" y2="4977.35" gradientUnits="userSpaceOnUse">
<stop stop-color="#05AEE9"/>
<stop offset="0.096269" stop-color="#00A9E0"/>
<stop offset="0.203864" stop-color="#07A3DC"/>
<stop offset="0.298638" stop-color="#089DD5"/>
<stop offset="0.404297" stop-color="#0A92CC"/>
<stop offset="0.5" stop-color="#0F87C3"/>
<stop offset="0.6" stop-color="#127CB8"/>
<stop offset="0.7" stop-color="#0E70AD"/>
<stop offset="0.8" stop-color="#0F63A3"/>
<stop offset="0.9" stop-color="#135393"/>
<stop offset="1" stop-color="#184485"/>
</linearGradient>
</defs>
</svg>
