<svg width="175" height="27" viewBox="0 0 175 27" fill="none" xmlns="http://www.w3.org/2000/svg">
<path d="M32.4975 23.9758L16.87 16.4833V0L32.4975 23.9758ZM33.74 26.8333L16.87 19.7417V26.8333H33.74Z" fill="#98002E"/>
<path d="M1.2425 23.9758L16.87 0V16.4833L1.2425 23.9758Z" fill="#E31837"/>
<path d="M0 26.8333H16.87V19.7417L0 26.8333Z" fill="#E31837"/>
<path d="M35.105 21.9197C35.7175 21.9197 36.225 22.4076 36.225 23.0174C36.225 23.6273 35.735 24.1326 35.1225 24.1326C34.51 24.1326 34.0025 23.6447 34.0025 23.0349C34.0025 22.4076 34.4925 21.9197 35.105 21.9197ZM35.105 23.9583C35.63 23.9583 36.05 23.5402 36.05 23.0174C36.05 22.4947 35.63 22.0765 35.105 22.0765C34.58 22.0765 34.16 22.4947 34.16 23.0174C34.16 23.5402 34.58 23.9583 35.105 23.9583ZM34.86 23.6621H34.7025V22.3902H35.1925C35.49 22.3902 35.595 22.5121 35.595 22.7386C35.6125 22.9303 35.455 23.0871 35.28 23.1046L35.665 23.6621H35.49L35.105 23.1046H34.8775L34.86 23.6621ZM34.86 22.9477H35.07C35.245 22.9477 35.4375 22.9303 35.4375 22.7212C35.4375 22.5644 35.28 22.5121 35.1575 22.5121H34.8775V22.9477H34.86Z" fill="#98002E"/>
<path d="M46.9175 23.9758H54.495C62.3 23.9758 66.9375 19.9508 66.9375 13.2773C66.9375 6.6038 62.3 2.59622 54.495 2.59622H46.9175V23.9758V23.9758ZM51.7125 6.30759H54.495C59.5525 6.30759 62.09 8.79925 62.09 13.2773C62.09 17.7553 59.5525 20.247 54.495 20.247H51.7125V6.30759Z" fill="#003D79"/>
<path d="M83.2475 14.7061H92.365V10.9947H83.2475V6.30759H93.555V2.59622H78.435V23.9758H93.8875V20.2644H83.2475V14.7061Z" fill="#003D79"/>
<path d="M121.223 20.2644H111.965V2.59622H107.152V23.9758H121.223V20.2644Z" fill="#003D79"/>
<path d="M147.123 2.59622H127.855V6.30759H135.065V23.9758H139.895V6.30759H147.123V2.59622Z" fill="#003D79"/>
<path d="M175 23.9758H169.978L167.878 18.6265H159.145L157.045 23.9758H152.355L161.333 2.50909H166.18L175 23.9758ZM166.513 15.0371L163.52 7.44015L160.51 15.0371H166.513Z" fill="#003D79"/>
</svg>
