<svg width="141" height="55" viewBox="0 0 141 55" fill="none" xmlns="http://www.w3.org/2000/svg">
<path d="M50.0132 50.1615L52.4099 45.0546L54.807 50.1615H50.0132ZM45.4876 54.7158H47.8672L49.0831 52.0856H55.6899L56.8887 54.7158H59.2537L53.6871 43.2583H51.1318L45.4876 54.7158Z" fill="#003876"/>
<path d="M62.2982 43.2585H64.5371V54.716H62.2982V43.2585Z" fill="#003876"/>
<path d="M71.0506 48.3507V45.1191H75.3704C77.2004 45.1191 78.1318 45.3857 78.1318 46.7265C78.1318 48.0822 77.2004 48.3507 75.3704 48.3507H71.0506ZM68.8109 54.7159H71.0502V50.2097H74.5983L77.9251 54.7161H80.6848L77.1689 50.0516C78.8563 49.9586 80.3692 48.7913 80.3692 46.68C80.3692 43.8737 78.4144 43.259 75.7025 43.259H68.8107V54.7167H68.8109V54.7159Z" fill="#003876"/>
<path d="M83.1938 43.2585H85.4325L87.6417 51.1379H87.6712L89.8646 43.2585H92.0097L94.2342 51.1213H94.2645L96.4573 43.2585H98.6496L95.3067 54.716H93.1615L90.9846 46.5857H90.9531L88.7606 54.716H86.5707L83.1938 43.2585Z" fill="#003876"/>
<path d="M104.438 50.1615L106.836 45.0546L109.232 50.1615H104.438ZM99.9129 54.7158H102.294L103.508 52.0856H110.115L111.313 54.7158H113.681L108.113 43.2583H105.558L99.9129 54.7158Z" fill="#003876"/>
<path d="M119.076 50.1275L113.478 43.2582H116.221L120.195 48.1116L124.154 43.2582H126.915L121.315 50.1275V54.7157H119.076L119.076 50.1275Z" fill="#003876"/>
<path d="M137.715 46.7416C137.352 45.7163 136.423 44.8346 133.694 44.8346C132.179 44.8346 130.651 45.2126 130.651 46.2675C130.651 46.7575 130.934 47.2773 133.221 47.5612L135.934 47.9705C138.504 48.3655 140.02 49.3568 140.02 51.2801C140.02 53.9912 137.433 55 134.372 55C129.452 55 128.253 52.5724 127.984 51.7054L130.145 51.0279C130.555 51.8631 131.406 53.078 134.435 53.078C136.264 53.078 137.777 52.4785 137.777 51.4849C137.777 50.7444 136.927 50.2561 135.286 50.0512L132.542 49.6735C129.893 49.3099 128.409 48.1592 128.409 46.4093C128.409 42.9747 132.874 42.9747 133.756 42.9747C138.693 42.9747 139.543 45.2603 139.826 46.0472L137.715 46.7416Z" fill="#003876"/>
<path d="M3.93758 9.38402H8.60886V34.3979C8.60886 38.2875 5.76798 40.8977 1.82894 40.8977H0V36.5037H1.32588C2.92918 36.5037 3.93758 35.7693 3.93758 34.031V9.38402ZM3.93758 0H8.60886V4.66907H3.93758V0Z" fill="#003876"/>
<path d="M16.2956 18.9041C16.3864 15.3802 18.448 13.5041 21.1973 13.5041C23.9463 13.5041 25.9608 15.3802 26.0965 18.9041H16.2956ZM30.7682 22.7471V18.9041C30.7682 12.9085 26.3238 9.10953 21.1977 9.10953C16.7063 9.10953 11.6243 12.0374 11.6243 21.0558C11.6243 30.5754 17.1651 32.8648 21.9297 32.8648C25.042 32.8648 28.0202 31.764 30.3086 29.1102L26.9225 26.2284C25.5463 27.6458 23.6238 28.4702 21.8377 28.4702C18.6311 28.4702 16.2958 26.5467 16.2958 22.7471H30.7682Z" fill="#003876"/>
<path d="M34.4717 2.33438H39.143V9.38398H42.5297V12.9541H39.143V26.4551C39.143 27.738 39.6458 28.1952 40.7876 28.1952H42.5297V32.5891H40.1034C36.8503 32.5891 34.4717 30.5259 34.4717 26.8675V12.9541H32.132V9.38398H34.4717V2.33438Z" fill="#003876"/>
<path d="M58.0589 18.126C61.7222 18.126 63.3678 20.4592 63.3678 23.022C63.3678 25.5865 61.7217 27.9201 58.0589 27.9201H50.4544V18.126H58.0589ZM45.5057 32.5892H59.2474C64.1491 32.5892 68.3153 28.9729 68.3153 23.3441C68.3153 20.0484 66.5757 16.6616 63.0038 15.8356V15.7455C66.8053 14.0514 67.8139 11.4427 67.8139 8.74321C67.8135 3.61669 64.5125 0 58.1482 0H45.5057V32.5892ZM57.598 4.39559C61.1711 4.39559 62.8652 6.54583 62.8652 9.06362C62.8652 11.625 61.1711 13.7333 57.598 13.7333H50.4544V4.39559H57.598Z" fill="#003876"/>
<path d="M71.0003 0H75.6716V26.5928C75.6716 27.6454 76.2674 28.1953 77.416 28.1953H79.0166V32.5892H76.9558C73.5642 32.5892 71.0003 31.1254 71.0003 26.9583V0V0Z" fill="#003876"/>
<path d="M80.9853 9.38406H85.6572V23.2052C85.6572 26.3655 87.6258 28.1953 90.2857 28.1953C92.8951 28.1953 94.862 26.3657 94.862 23.2052V9.38406H99.5353V32.5892H94.862V30.1163H94.7743C93.3071 31.9482 91.1995 32.8646 88.7713 32.8646C85.1099 32.8646 80.9853 30.0708 80.9853 24.8091V9.38406V9.38406Z" fill="#003876"/>
<path d="M106.717 18.9041C106.812 15.3802 108.869 13.5041 111.618 13.5041C114.366 13.5041 116.38 15.3802 116.521 18.9041H106.717ZM121.191 22.7471V18.9041C121.191 12.9085 116.749 9.10953 111.618 9.10953C107.129 9.10953 102.044 12.0374 102.044 21.0558C102.044 30.5754 107.588 32.8648 112.349 32.8648C115.467 32.8648 118.442 31.764 120.733 29.1102L117.342 26.2286C115.968 27.646 114.047 28.4706 112.26 28.4706C109.054 28.4706 106.717 26.5473 106.717 22.7473L121.191 22.7471Z" fill="#003876"/>
</svg>
