<svg width="168" height="25" viewBox="0 0 168 25" fill="none" xmlns="http://www.w3.org/2000/svg">
<path d="M45.9865 19.7304C45.2803 19.8882 44.417 19.9672 43.5538 19.9672C41.0426 19.9672 40.4933 19.099 40.4933 17.4417V7.89216H35.7848V17.9941C35.7848 22.4926 38.296 24.5446 43.3184 24.5446C45.7511 24.5446 48.0269 24.0711 50.7735 23.4397V7.89216H45.9865V19.7304ZM61.2892 20.2039C59.5628 20.2039 59.3273 19.4147 59.3273 18.073V11.9172H63.2511V7.89216H59.3273V3.15686H54.6188V7.89216H52.2646V11.8382H54.6188V18.3098C54.6188 21.151 55.1682 24.4657 59.8767 24.4657C61.2892 24.4657 62.4664 24.15 63.8004 23.7554L63.3296 19.8093C62.6233 20.0461 61.9955 20.2039 61.2892 20.2039ZM11.7713 11.2858C10.9081 10.9701 9.88789 10.6544 8.86771 10.3387C6.12108 9.54951 5.25785 9.1549 5.25785 7.89216C5.25785 6.47157 6.27803 5.76127 8.78924 5.76127C10.8296 5.76127 12.6345 6.31373 14.4395 6.9451L15.4596 2.36765C13.3408 1.57843 11.3789 0.868137 8.94619 0.868137C3.29596 0.868137 0.156951 4.10392 0.156951 7.97108C0.156951 10.8912 1.41256 12.7853 4.23767 13.9691C5.02242 14.2848 6.0426 14.6005 7.06278 14.9162C10.1233 15.8632 11.065 16.3368 11.065 17.5206C11.065 18.9412 9.88789 19.7304 7.45516 19.7304C5.25785 19.7304 3.21749 19.099 1.09865 18.152L0 22.8873C2.35426 23.8343 4.63004 24.4657 7.45516 24.4657C13.2623 24.4657 16.2444 21.2299 16.2444 17.2838C16.2444 14.127 14.4395 12.3118 11.7713 11.2858ZM73.6099 7.10294C72.0404 7.10294 70.5493 7.49755 69.5291 7.81323V0H64.8206V24.4657H69.5291V12.2328C70.3924 11.9172 71.3341 11.6015 72.5112 11.6015C74.3161 11.6015 75.0224 12.3118 75.0224 14.048V24.4657H79.7309V13.4956C79.7309 9.1549 77.7691 7.10294 73.6099 7.10294ZM25.8969 7.02402C21.1099 7.02402 17.2646 10.4176 17.2646 15.7054C17.2646 20.9931 21.1099 24.5446 25.8969 24.5446C30.6839 24.5446 34.5291 21.0721 34.5291 15.7054C34.5291 10.3387 30.6839 7.02402 25.8969 7.02402ZM25.8969 19.8093C23.8565 19.8093 22.2085 18.3098 22.2085 15.6265C22.2085 12.9431 23.778 11.5225 25.8969 11.5225C28.0157 11.5225 29.5852 12.9431 29.5852 15.6265C29.5852 18.3887 27.9372 19.8093 25.8969 19.8093ZM131.603 14.3637C130.897 14.127 130.191 13.8902 129.327 13.6534C127.679 13.1799 127.052 12.9431 127.052 12.2328C127.052 11.5225 127.679 11.049 129.17 11.049C130.74 11.049 132.152 11.3647 133.722 11.8382L134.507 7.73431C132.78 7.33971 131.132 7.02402 129.249 7.02402C124.776 7.02402 122.343 9.31274 122.343 12.4696C122.343 14.6794 123.442 16.1 125.639 17.0471C126.267 17.2838 126.973 17.5995 127.836 17.8363C129.563 18.3098 130.426 18.5466 130.426 19.3358C130.426 20.125 129.406 20.4407 127.993 20.4407C126.267 20.4407 124.697 20.125 123.049 19.4936L122.343 23.5975C124.383 24.15 126.267 24.5446 128.386 24.5446C133.094 24.5446 135.213 22.098 135.213 19.0201C135.135 16.8892 134.271 15.3108 131.603 14.3637ZM113.946 7.02402C109.002 7.02402 105.471 10.4966 105.471 16.0211C105.471 21.151 108.531 24.5446 114.025 24.5446C116.457 24.5446 118.419 23.8343 120.46 22.9662L119.753 19.0201C118.184 19.7304 116.614 20.2828 114.731 20.2828C111.906 20.2828 110.729 19.099 110.572 17.3627H121.166C121.166 17.3627 121.323 15.4686 121.323 15.074C121.323 10.5755 118.89 7.02402 113.946 7.02402ZM110.65 14.2059C110.964 12.7853 111.67 10.9701 113.711 10.9701C115.751 10.9701 116.379 13.0221 116.379 14.2059H110.65ZM144.473 20.2039C142.747 20.2039 142.511 19.4147 142.511 18.073V11.9172H146.435V7.89216H142.511V3.15686H137.803V7.89216H135.37V11.9172H137.803V18.3887C137.803 21.2299 138.509 24.5446 143.217 24.5446C144.63 24.5446 145.807 24.2289 147.141 23.8343L146.592 19.8882C145.807 20.0461 145.179 20.2039 144.473 20.2039ZM147.612 0.947059C146.435 0.947059 145.572 1.89412 145.493 3.07794C145.415 4.26176 146.435 5.20882 147.534 5.20882C148.711 5.20882 149.652 4.26176 149.652 3.07794C149.652 1.89412 148.789 0.947059 147.612 0.947059ZM147.612 4.81422C146.67 4.81422 145.964 4.10392 145.964 3.07794C145.964 2.05196 146.67 1.34167 147.691 1.34167C148.632 1.34167 149.417 2.05196 149.339 3.07794C149.26 4.10392 148.554 4.81422 147.612 4.81422ZM147.848 3.15686C148.24 3.07794 148.475 2.9201 148.475 2.52549C148.475 2.13088 148.161 1.8152 147.691 1.8152H146.906V4.26176H147.377V3.23578C147.534 3.23578 147.612 3.31471 147.691 3.47255L148.24 4.26176H148.789L148.318 3.47255C148.004 3.31471 147.926 3.23578 147.848 3.15686ZM147.534 2.9201H147.298V2.2098H147.612C147.926 2.2098 148.004 2.36765 148.004 2.52549C148.004 2.84118 147.769 2.9201 147.534 2.9201ZM101.076 7.89216L98.0942 16.9681L95.1121 7.89216H91.0314L87.9708 16.9681L84.9888 7.89216H79.8879L85.7735 24.4657H90.0897L93.0717 15.4686L96.0538 24.4657H100.37L106.256 7.89216H101.076Z" fill="#304CB2"/>
<path d="M162.13 6.94507C160.561 6.94507 159.227 7.49752 158.206 8.04997C157.186 7.49752 155.931 6.94507 154.283 6.94507C151.065 6.94507 149.025 8.99703 149.025 12.6274C149.025 16.9681 153.184 21.2299 158.206 24.7024C163.229 21.3088 167.388 17.047 167.388 12.6274C167.388 8.99703 165.269 6.94507 162.13 6.94507Z" fill="#CCCCCC"/>
<path d="M149.496 12.7063C149.496 17.126 154.204 21.3088 158.128 24.0711C159.305 23.2818 160.482 22.3348 161.581 21.3877C156.323 16.9681 151.301 12.9431 149.574 11.5225C149.574 11.8382 149.496 12.2328 149.496 12.7063Z" fill="url(#paint0_linear_36_478)"/>
<path d="M166.525 14.7583C162.679 11.6015 160.404 9.9441 157.893 8.44459C157.186 8.04998 155.852 7.41861 154.361 7.41861C152.949 7.41861 151.693 7.89214 150.83 8.76028C150.28 9.31273 149.888 10.023 149.731 10.8912C151.693 12.3117 157.108 16.1789 162.523 20.5196C164.327 18.7833 165.819 16.8103 166.525 14.7583Z" fill="url(#paint1_linear_36_478)"/>
<path d="M165.505 8.76028C164.641 7.89214 163.464 7.41861 162.052 7.41861C160.561 7.41861 159.462 7.89214 158.599 8.36567C160.09 9.23381 163.307 11.049 166.682 13.5745C166.76 13.2588 166.76 12.8642 166.76 12.5485C166.839 10.9701 166.368 9.62841 165.505 8.76028Z" fill="url(#paint2_linear_36_478)"/>
<defs>
<linearGradient id="paint0_linear_36_478" x1="149.53" y1="17.7419" x2="161.66" y2="17.7419" gradientUnits="userSpaceOnUse">
<stop stop-color="#3656CC"/>
<stop offset="0.35" stop-color="#304CB2"/>
<stop offset="0.72" stop-color="#283B80"/>
</linearGradient>
<linearGradient id="paint1_linear_36_478" x1="151.253" y1="8.10531" x2="165.007" y2="17.6816" gradientUnits="userSpaceOnUse">
<stop offset="0.3" stop-color="#E61C23"/>
<stop offset="0.8" stop-color="#C3161C"/>
</linearGradient>
<linearGradient id="paint2_linear_36_478" x1="159.748" y1="6.85787" x2="167.612" y2="12.3331" gradientUnits="userSpaceOnUse">
<stop stop-color="#FDBC11"/>
<stop offset="0.25" stop-color="#FCB415"/>
<stop offset="0.8" stop-color="#F89E1C"/>
</linearGradient>
</defs>
</svg>
