<svg width="175" height="49" viewBox="0 0 175 49" fill="none" xmlns="http://www.w3.org/2000/svg">
<path d="M144.83 9.89924H150.593L152.487 0.942963H163.487L161.586 9.89924H168.853L167.307 17.1869H160.045L157.638 28.5454C157.1 31.098 157.646 31.4578 160.605 31.4578C161.95 31.4578 163.055 31.4075 164.52 31.3565L163.063 38.2316C160.766 38.5423 157.815 38.7522 154.597 38.7522C147.438 38.7522 144.855 36.9848 146.146 30.8881L149.051 17.1869H143.289L144.83 9.89924Z" fill="#231F20"/>
<path d="M129.897 9.89923H140.893L134.919 38.1303H123.924L129.897 9.89923Z" fill="#231F20"/>
<path d="M131.992 0H142.989L141.576 6.66764H130.579L131.992 0Z" fill="#231F20"/>
<path d="M100.753 9.89897L94.7894 38.1232L105.503 38.1314L111.467 9.90686L100.753 9.89897Z" fill="#231F20"/>
<path d="M124.123 8.64441C119.213 8.64441 111.398 13.5016 109.338 22.1503L108.809 24.0989H108.993C110.555 20.3455 114.468 18.3361 119.74 18.3361C121.161 18.3361 122.776 18.5314 124.075 18.8248L126.212 8.74386C125.513 8.68124 124.783 8.64441 124.123 8.64441Z" fill="#231F20"/>
<path d="M85.245 9.89923H96.239L90.2645 38.1303H79.2686L85.245 9.89923Z" fill="#231F20"/>
<path d="M87.3366 0H98.3343L96.925 6.66764H85.9267L87.3366 0Z" fill="#231F20"/>
<path d="M58.063 31.2515C63.0985 31.2515 66.3761 28.7517 67.3654 24.0657C68.3583 19.3724 66.1389 16.8775 61.1096 16.8775C55.9733 16.8775 52.6797 19.6867 51.7553 24.0657C50.8284 28.4404 52.9285 31.2515 58.063 31.2515ZM43.7546 9.89922H54.4393L53.6482 13.6477H53.7509C56.6929 10.7826 60.925 9.16928 65.3869 9.16928C75.3459 9.16928 80.6595 14.6865 78.5869 24.4807C76.8548 32.6592 69.4343 39.2691 59.1152 39.2691C54.2394 39.2691 50.8492 37.6558 49.4191 35.5746H49.317L46.6116 48.3371H35.6176L43.7546 9.89922Z" fill="#231F20"/>
<path d="M12.9177 29.3275C12.8547 30.3675 13.0932 31.2012 13.9662 31.7267C14.832 32.2995 16.27 32.6064 18.6562 32.6064C21.0932 32.6064 23.787 32.1386 24.2175 30.1078C24.5366 28.5982 23.5339 28.1789 20.9043 27.8677L11.3501 26.6699C5.08697 25.8878 2.3033 23.5973 3.32065 18.8033C4.93657 11.1492 11.9823 8.75369 22.5117 8.75369C29.9823 8.75369 39.1349 10.1049 38.0606 18.1262H25.7178C25.8664 16.9285 25.2519 16.1494 24.2517 15.7307C23.2612 15.266 21.844 15.1052 20.4409 15.1052C17.2769 15.1052 15.2569 15.8351 14.8473 17.7628C14.6608 18.6493 15.222 19.4283 17.9562 19.7426L27.2292 20.7832C34.6246 21.6175 37.8625 23.9608 36.696 29.481C35.2837 36.1468 28.2955 39.2685 16.6252 39.2685C8.84154 39.2685 -1.39319 37.8688 0.157305 29.3275H12.9177Z" fill="#231F20"/>
<path d="M172.123 12.1222C172.254 12.1222 172.358 12.0915 172.435 12.0301C172.51 11.9687 172.549 11.8834 172.549 11.776C172.549 11.6759 172.516 11.593 172.451 11.5279C172.386 11.4623 172.281 11.4297 172.136 11.4297H171.859V12.1222H172.123ZM171.285 10.9908H172.238C172.491 10.9908 172.708 11.0485 172.888 11.1639C173.068 11.2793 173.158 11.4721 173.158 11.741C173.158 11.8723 173.122 11.9951 173.05 12.1105C172.976 12.226 172.871 12.3144 172.733 12.3764L173.239 13.2886H172.63L172.25 12.5378H171.859V13.2886H171.285V10.9908ZM172.169 13.9694C172.407 13.9694 172.63 13.9259 172.836 13.8368C173.044 13.7484 173.222 13.625 173.371 13.4673C173.52 13.3095 173.638 13.1204 173.722 12.9019C173.806 12.6821 173.848 12.4378 173.848 12.1682C173.848 11.8987 173.806 11.6526 173.722 11.4297C173.638 11.2063 173.52 11.0141 173.371 10.8526C173.222 10.6906 173.044 10.5653 172.836 10.4769C172.63 10.3885 172.407 10.3443 172.169 10.3443C171.924 10.3443 171.7 10.3885 171.497 10.4769C171.294 10.5653 171.117 10.6906 170.968 10.8526C170.819 11.0141 170.702 11.2063 170.618 11.4297C170.533 11.6526 170.491 11.8987 170.491 12.1682C170.491 12.4378 170.533 12.6821 170.618 12.9019C170.702 13.1204 170.819 13.3095 170.968 13.4673C171.117 13.625 171.294 13.7484 171.497 13.8368C171.7 13.9259 171.924 13.9694 172.169 13.9694V13.9694ZM172.169 14.4661C171.863 14.4661 171.576 14.4102 171.307 14.2985C171.039 14.1868 170.803 14.029 170.6 13.8252C170.397 13.6214 170.238 13.3789 170.123 13.0977C170.008 12.8171 169.95 12.5071 169.95 12.1682C169.95 11.83 170.008 11.5181 170.123 11.2333C170.238 10.9484 170.397 10.7041 170.6 10.5003C170.803 10.2958 171.039 10.1381 171.307 10.0263C171.576 9.91521 171.863 9.85934 172.169 9.85934C172.476 9.85934 172.763 9.91521 173.032 10.0263C173.3 10.1381 173.536 10.2958 173.739 10.5003C173.942 10.7041 174.101 10.9484 174.216 11.2333C174.331 11.5181 174.389 11.83 174.389 12.1682C174.389 12.5071 174.331 12.8171 174.216 13.0977C174.101 13.3789 173.942 13.6214 173.739 13.8252C173.536 14.029 173.3 14.1868 173.032 14.2985C172.763 14.4102 172.476 14.4661 172.169 14.4661" fill="#231F20"/>
</svg>
