<svg width="175" height="32" viewBox="0 0 175 32" fill="none" xmlns="http://www.w3.org/2000/svg">
<path d="M173.426 31.653C172.823 31.653 172.318 31.1639 172.318 30.5379C172.318 29.9118 172.823 29.4228 173.426 29.4228C174.028 29.4228 174.533 29.9118 174.533 30.5379C174.533 31.1443 174.009 31.653 173.426 31.653ZM173.426 29.2271C172.687 29.2271 172.123 29.814 172.123 30.5379C172.123 31.2617 172.706 31.8486 173.426 31.8486C174.145 31.8486 174.728 31.2617 174.728 30.5379C174.728 29.7945 174.145 29.2271 173.426 29.2271Z" fill="#1F369B"/>
<path d="M173.367 30.3814H173.134V30.0097H173.523C173.678 30.0097 173.873 30.0292 173.873 30.1857C173.853 30.4009 173.542 30.3814 173.367 30.3814ZM174.067 30.1857C174.067 29.8727 173.814 29.814 173.562 29.814H172.94V31.2421H173.134V30.577H173.367L173.795 31.2421H174.028L173.6 30.577C173.853 30.577 174.067 30.4596 174.067 30.1857Z" fill="#1F369B"/>
<path d="M165.028 31.8681C165.281 31.1639 165.514 30.4205 165.709 29.6771C166.078 28.1512 166.272 26.547 166.272 24.9428C166.272 24.0038 166.214 23.0843 166.078 22.1649C165.981 23.4952 165.748 24.6494 165.748 24.6494C165.806 24.8255 165.903 25.1189 165.942 25.295C165.806 26.6644 165.534 27.9947 165.184 29.2663C165.009 28.6207 164.776 28.0142 164.756 27.9751C164.29 29.2271 163.59 30.6944 162.968 31.8877H165.028V31.8681Z" fill="#1F369B"/>
<path d="M160.713 31.8681H161.899C165.281 26.8405 165.456 22.3801 165.456 21.5193C165.456 19.8956 165.184 18.4284 164.737 17.2546C164.737 17.2546 164.037 15.4352 162.948 13.8115C163.065 14.1832 163.298 14.907 163.415 15.5722C163.415 15.6113 163.434 15.6504 163.434 15.6895C163.648 16.0417 164.62 17.7828 164.756 19.6804C164.756 19.6804 164.076 18.7218 163.551 18.0958C163.532 19.1326 163.396 20.189 163.182 21.1867C163.182 21.1867 164.192 22.3801 164.659 23.143C164.659 23.143 164.348 24.8059 163.687 26.4101C163.007 25.4124 162.152 24.4538 162.152 24.4538C161.646 25.7058 161.005 26.9774 160.305 28.1512C160.305 28.1512 161.588 29.6771 161.879 30.1075C161.51 30.7139 161.141 31.2813 160.713 31.8681Z" fill="#1F369B"/>
<path d="M156.476 31.8681C158.73 29.3445 160.635 26.3709 161.782 23.1822C162.774 20.4238 163.318 17.0394 162.443 14.0462C162.385 13.8506 162.326 13.655 162.249 13.4398C161.957 12.6964 161.607 12.0704 161.199 11.5617C160.13 10.3488 158.905 9.27286 157.564 8.35339C157.759 8.60771 157.933 8.86203 158.089 9.13591C158.089 9.13591 159.722 10.3488 160.655 11.5813C159.45 10.7205 158.769 10.3684 158.672 10.3097C158.672 10.3097 158.672 10.3097 158.653 10.3097C159.119 11.4443 159.255 12.3834 159.255 12.4029C159.255 12.4029 160.694 13.1659 161.977 14.281C162.152 15.1222 162.229 15.9634 162.21 16.8242C160.908 15.67 159.411 14.7701 159.411 14.7701C159.391 15.7482 159.255 16.7264 159.041 17.7045C159.041 17.7045 160.46 18.6044 161.86 19.876C161.86 19.876 161.471 21.6758 160.81 23.0843C159.489 21.8323 158.186 20.8737 158.089 20.7955C158.089 20.7955 157.428 22.5366 156.359 24.2777C157.7 25.4515 158.944 26.6448 158.944 26.6448C158.186 27.8382 157.311 28.9924 156.378 30.0488L153.988 27.6621C153.016 28.875 151.966 30.0096 150.839 31.0465C150.897 31.1052 151.363 31.6334 151.577 31.8681H156.476Z" fill="#1F369B"/>
<path d="M157.098 8.60772C156.942 8.39253 156.767 8.17734 156.573 7.98171C156.398 7.80564 156.223 7.6687 156.048 7.53176C154.065 6.02541 150.411 5.28201 150.411 5.28201C150.761 5.47764 151.052 5.65371 151.052 5.65371C151.072 5.65371 152.549 6.02541 153.851 6.67099C153.851 6.67099 152.666 6.3971 151.908 6.29929C152.219 6.57317 152.53 6.90574 152.782 7.23831C152.782 7.23831 155.212 7.68826 156.262 8.27515C156.262 8.27515 156.767 8.80335 157.195 9.72282C155.543 9.03811 153.657 8.68598 153.657 8.68598C153.91 9.2533 154.085 9.85976 154.201 10.4858C154.201 10.4858 156.262 10.9944 157.817 11.7378C157.953 12.4812 157.992 13.2442 157.972 14.0267C156.145 13.1072 154.318 12.5203 154.318 12.5203C154.279 13.3224 154.163 14.1441 153.929 15.0048C153.929 15.0048 156.437 16.1395 157.564 16.8046C157.311 17.8023 156.962 18.7805 156.553 19.7195C154.843 18.6044 153.035 17.6067 153.035 17.6067C152.588 18.7022 151.461 20.502 151.461 20.502C151.48 20.5216 153.346 21.8128 154.785 22.9474C154.065 24.0234 153.268 25.0798 152.394 26.0579C152.102 25.7645 149.342 23.3191 149.342 23.3191C148.506 24.2777 147.592 25.2363 146.582 26.1362L149.225 29.1489C147.515 30.577 145.785 31.6529 145.785 31.6529L143.569 28.5033C143.569 28.5033 142.014 29.6966 139.39 30.9487V31.8681H148.02C157.622 24.532 161.044 14.0462 157.098 8.60772Z" fill="#1F369B"/>
<path d="M152.219 7.51218C149.828 4.26472 146.076 4.73424 144.968 4.89074C143.744 5.06681 142.811 5.34069 142.811 5.34069C143.083 5.36025 143.452 5.41894 143.724 5.47763C143.919 5.4385 145.649 5.02768 146.893 5.20375C145.979 5.30156 144.716 5.69282 144.58 5.73195C144.618 5.75151 144.988 5.84933 145.454 6.12321C145.59 6.08408 147.301 5.63413 148.914 5.59501C148.914 5.59501 149.517 5.86889 150.1 6.26015C148.001 6.26015 146.271 6.65141 146.212 6.67097C146.465 6.88617 146.698 7.16005 146.932 7.47306C149.225 7.12092 151.208 7.27743 151.208 7.27743C151.208 7.27743 151.48 7.61 151.597 7.78606C151.752 8.00126 151.908 8.2947 152.024 8.52946C149.672 8.25558 147.437 8.45121 147.437 8.45121C147.592 8.86203 147.69 9.29242 147.748 9.74236C148.001 9.74236 150.003 9.74236 152.53 10.2119C152.607 10.7988 152.627 11.4248 152.549 12.0899C152.122 11.9725 150.042 11.4639 147.767 11.2292C147.729 11.7965 147.612 12.4029 147.456 13.0094C147.709 13.0681 150.508 13.7332 152.083 14.3788C152.044 14.4766 152.024 14.5744 151.985 14.6722C151.752 15.3569 151.48 16.0221 151.15 16.7068C149.886 16.0808 146.796 14.8679 146.796 14.8679C146.485 15.5721 146.115 16.2764 145.668 16.9807C145.668 16.9807 148.331 18.5066 149.614 19.3478C149.031 20.189 148.351 21.0302 147.612 21.8323C146.679 20.9911 144.366 19.1913 144.191 19.0544C143.433 19.9543 142.5 20.8933 142.208 21.1672L144.988 24.3755C144.968 24.3951 144.929 24.4146 144.91 24.4537C144.307 24.9624 143.666 25.4319 143.102 25.8036C142.616 26.1362 142.228 26.3905 142.092 26.4687C142.053 26.41 140.245 23.4952 139.953 23.0256C139.759 23.1821 139.545 23.3191 139.351 23.456V29.4814C139.681 29.3249 140.012 29.1489 140.342 28.9924C141.917 28.2098 143.433 27.2317 144.852 26.0775C145.765 25.3536 146.718 24.4929 147.651 23.5147C148.778 22.3605 149.75 21.1476 150.547 19.9151C153.657 15.3374 154.473 10.5836 152.219 7.51218Z" fill="#1F369B"/>
<path d="M146.018 7.27743C144.871 5.96671 142.986 5.51676 140.789 5.82977C140.731 5.82977 140.673 5.84933 140.614 5.84933C140.439 5.86889 140.284 5.90802 140.109 5.94714C139.778 6.0254 139.545 6.10365 139.409 6.16234V6.82748C139.623 6.65141 139.856 6.49491 140.07 6.3384C140.517 6.24059 140.945 6.1819 141.353 6.16234C140.711 6.53403 139.992 7.02311 139.409 7.47306V7.9817L139.429 8.00126C139.429 8.00126 141.042 6.7101 142.325 6.16234C142.636 6.1819 142.927 6.22103 143.219 6.29928C141.295 7.12092 139.895 8.1382 139.798 8.19689C139.992 8.31427 140.167 8.47077 140.206 8.47077C140.225 8.45121 142.092 7.27743 144.133 6.59272C144.405 6.72966 144.677 6.88617 144.91 7.06224C142.675 7.68825 140.536 8.82291 140.536 8.82291C140.653 8.95985 140.77 9.11635 140.848 9.27286C140.867 9.27286 140.867 9.25329 140.886 9.25329C143.161 8.27514 145.59 7.7665 145.59 7.7665C145.785 8.02082 145.94 8.31427 146.057 8.64684C146.057 8.64684 143.88 8.90116 141.081 9.80106C141.197 10.1923 141.236 10.4858 141.236 10.4858C141.236 10.4858 143.88 9.89887 146.31 9.82062C146.348 10.2119 146.329 10.6618 146.271 11.1118C144.832 11.0335 141.411 11.2096 141.275 11.2292C141.275 11.2292 141.256 11.7182 141.139 12.1877C141.139 12.1877 143.647 12.266 145.921 12.6964C145.746 13.2441 145.513 13.7919 145.26 14.3201C143.744 13.8702 141.431 13.3028 140.828 13.1659C140.673 13.5572 140.459 13.9484 140.225 14.3397C140.225 14.3397 143.044 15.5721 144.113 16.1786C143.647 16.8829 142.714 17.8806 142.714 17.8806C142.441 17.685 142.189 17.4893 141.955 17.3133C141.217 16.7851 140.109 16.0025 139.429 15.533V17.8806L140.886 19.6021C140.4 19.9934 139.914 20.3455 139.429 20.6585V22.0475C139.448 22.0279 139.467 22.0279 139.487 22.0084C140.148 21.5584 140.809 21.0498 141.45 20.4825C146.446 16.0612 148.506 10.1532 146.018 7.27743Z" fill="#1F369B"/>
<path d="M139.37 13.9875C140.653 12.1486 140.847 10.0358 139.72 8.99898C139.623 8.90116 139.506 8.82291 139.37 8.74466V13.9875Z" fill="#1F369B"/>
<path d="M146.407 4.06911C157.817 4.06911 167.108 13.4593 167.108 24.982C167.108 27.3295 166.719 29.6575 165.961 31.8486H171.035V0H139.37V5.32114H139.39C141.644 4.47993 144.016 4.06911 146.407 4.06911Z" fill="#1F369B"/>
<path d="M123.276 17.9197C123.101 18.4479 122.809 18.8783 122.42 19.2109C122.032 19.5435 121.526 19.7782 120.885 19.9152C120.263 20.0521 119.505 20.1304 118.61 20.1304H114.878V11.7378H118.61C119.524 11.7378 120.302 11.8161 120.924 11.9726C121.546 12.1291 122.051 12.3834 122.44 12.716C122.829 13.0485 123.101 13.4985 123.276 14.0267C123.451 14.5549 123.528 15.2005 123.528 15.9439C123.548 16.7264 123.451 17.3915 123.276 17.9197ZM126.133 10.1532C125.355 9.46851 124.364 8.92074 123.178 8.54905C121.973 8.15779 120.535 7.98172 118.844 7.98172H110.31V23.8864H118.844C121.876 23.8864 124.228 23.2213 125.9 21.9106C127.571 20.5803 128.388 18.6044 128.388 15.9439C128.388 14.7505 128.213 13.6746 127.844 12.6964C127.474 11.6987 126.91 10.8575 126.133 10.1532Z" fill="#1F369B"/>
<path d="M92.1554 17.3524H100.805V14.2223H92.1554V11.6009H102.419L102.341 7.98172H87.568V23.8864H102.769L102.846 20.2869H92.1554V17.3524Z" fill="#1F369B"/>
<path d="M64.2425 7.98172L64.1259 11.7378H70.1711V23.8864H74.7779V11.7378H80.8231L80.7259 7.98172H64.2425Z" fill="#1F369B"/>
<path d="M57.1282 7.98172H52.4436V23.8864H57.1282V7.98172Z" fill="#1F369B"/>
<path d="M39.4591 15.8852L39.5174 17.5872L39.4591 17.6263L38.2734 16.3938L29.7207 7.98172H25.9108V23.8864H30.09V15.533L30.0511 13.8115L30.1094 13.7919L31.3146 14.9853L40.6254 23.8864H43.6382V7.98172H39.4591V15.8852Z" fill="#1F369B"/>
<path d="M13.2178 16.9416C13.2178 18.1349 12.8874 19.0348 12.207 19.6217C11.5267 20.2086 10.4576 20.502 8.9609 20.502C7.46418 20.502 6.35622 20.2086 5.65645 19.6217C4.95668 19.0348 4.6068 18.1349 4.6068 16.9416V7.98172H0V16.9025C0 19.3674 0.777519 21.2063 2.31312 22.3997C3.84872 23.6126 6.06465 24.219 8.9609 24.219C11.8766 24.219 14.0731 23.6126 15.5504 22.4192C17.0471 21.2063 17.7857 19.3674 17.7857 16.9025V7.98172H13.2178V16.9416Z" fill="#1F369B"/>
</svg>
